<svg width="41" height="41" viewBox="0 0 41 41" fill="none" xmlns="http://www.w3.org/2000/svg">
<mask id="mask0_201_502" style="mask-type:luminance" maskUnits="userSpaceOnUse" x="1" y="1" width="38" height="39">
<path d="M1.29248 1.40918H38.9325V39.0492H1.29248V1.40918Z" fill="white"/>
</mask>
<g mask="url(#mask0_201_502)">
<path d="M38.9325 33.8215C38.9325 36.7093 36.5926 39.0492 33.7048 39.0492H6.52029C3.63352 39.0492 1.29248 36.7093 1.29248 33.8215V6.63699C1.29248 3.74918 3.63352 1.40918 6.52029 1.40918H33.7048C36.5926 1.40918 38.9325 3.74918 38.9325 6.63699V33.8215Z" fill="#673AB7"/>
</g>
<path d="M29.5542 21.9012C28.8747 20.9602 27.8918 20.312 26.6267 19.967C26.6267 19.967 27.6932 19.5801 28.6551 18.1373C29.2302 17.2172 29.5229 16.1088 29.5229 14.8124C29.5229 12.5645 28.7074 10.8392 27.0763 9.65779C25.4453 8.47633 23.6051 7.68164 20.4788 7.68164H10.7029V32.775H21.6081C24.5669 32.754 26.794 32.1163 28.3101 30.893C29.8157 29.6488 30.5685 27.8086 30.5685 25.3515C30.5685 23.9924 30.2339 22.8423 29.5542 21.9012ZM16.9762 11.8639C16.9762 11.8639 21.3362 11.8639 21.4199 11.8639C23.0091 11.8639 24.2952 13.1499 24.2952 14.7391C24.2952 16.3284 23.0091 17.6145 21.4199 17.6145C21.3362 17.6145 16.9762 17.6145 16.9762 17.6145V11.8639ZM22.204 28.5928H16.9762V22.3195H22.204C23.9397 22.3195 25.3407 23.7205 25.3407 25.4561C25.3407 27.1917 23.9397 28.5928 22.204 28.5928Z" fill="white"/>
</svg>
