<svg width="35" height="48" viewBox="0 0 35 48" fill="none" xmlns="http://www.w3.org/2000/svg">
<path d="M19.6714 22.6482C21.9564 25.2805 19.0706 27.648 19.0706 27.648C19.0706 27.648 24.8736 24.6523 22.2088 20.9007C19.7193 17.4031 17.8115 15.6652 28.1435 9.67285C28.1435 9.67285 11.9262 13.7229 19.6714 22.6482Z" fill="#E76F00"/>
<path d="M11.2519 36.6328C11.2519 36.6328 9.44177 37.6862 12.5402 38.0428C16.2946 38.4708 18.2121 38.4091 22.3487 37.6258C22.3487 37.6258 23.4363 38.3076 24.956 38.8987C15.6829 42.8738 3.96846 38.6684 11.2519 36.6328Z" fill="#5382A1"/>
<path d="M10.1186 31.4463C10.1186 31.4463 8.08829 32.9497 11.1892 33.2706C15.1987 33.6835 18.3656 33.7178 23.8449 32.6617C23.8449 32.6617 24.6034 33.4311 25.7953 33.8508C14.5828 37.1291 2.0948 34.1101 10.1184 31.4463" fill="#5382A1"/>
<path d="M31.9359 40.4696C31.9359 40.4696 33.2758 41.5738 30.4614 42.4284C25.1082 44.0497 8.18181 44.5394 3.48012 42.4928C1.79028 41.7577 4.95994 40.7371 5.95694 40.5218C6.99679 40.2968 7.59106 40.3393 7.59106 40.3393C5.71137 39.0143 -4.55868 42.9386 2.37452 44.0634C21.2814 47.1291 36.8404 42.6821 31.9357 40.4696" fill="#5382A1"/>
<path d="M12.1224 26.0721C12.1224 26.0721 3.51276 28.1173 9.07357 28.8593C11.4214 29.1748 16.1025 29.1035 20.4613 28.7373C24.0246 28.437 27.603 27.7978 27.603 27.7978C27.603 27.7978 26.3467 28.3368 25.4374 28.9567C16.6936 31.257 -0.195701 30.1872 4.66641 27.8347C8.77891 25.8472 12.1224 26.0721 12.1224 26.0721Z" fill="#5382A1"/>
<path d="M27.5673 34.7062C36.455 30.0878 32.3445 25.649 29.4765 26.2471C28.7743 26.394 28.4602 26.5201 28.4602 26.5201C28.4602 26.5201 28.7208 26.1113 29.22 25.9345C34.8942 23.9401 39.2585 31.8188 27.3877 34.9394C27.3877 34.9394 27.5261 34.816 27.5673 34.7062Z" fill="#5382A1"/>
<mask id="mask0_306_21" style="mask-type:luminance" maskUnits="userSpaceOnUse" x="11" y="0" width="13" height="26">
<path d="M11.2572 0H23.4905V25.9887H11.2572V0Z" fill="white"/>
</mask>
<g mask="url(#mask0_306_21)">
<path d="M22.2083 -0.00377604C22.2083 -0.00377604 27.1308 4.92031 17.5394 12.4922C9.84934 18.5656 15.7867 22.0292 17.5367 25.9863C13.0475 21.9358 9.75311 18.3695 11.9633 15.0514C15.2078 10.1797 24.1943 7.81784 22.2083 -0.00390625" fill="#E76F00"/>
</g>
<path d="M12.9957 47.2228C21.5271 47.7688 34.6266 46.9197 34.9365 42.8828C34.9365 42.8828 34.3399 44.4122 27.8868 45.6275C20.6051 46.9978 11.6241 46.8387 6.29834 45.9595C6.29834 45.9595 7.38857 46.862 12.9953 47.2228" fill="#5382A1"/>
</svg>
