<svg width="80" height="41" viewBox="0 0 80 41" fill="none" xmlns="http://www.w3.org/2000/svg">
<path fill-rule="evenodd" clip-rule="evenodd" d="M56.6194 5.64321C56.2817 5.63731 56.0432 5.67882 55.7905 5.73256V5.77723H55.8366C55.9975 6.09816 56.2817 6.30446 56.4809 6.58072L56.9414 7.51782L56.9875 7.47314C57.2724 7.27822 57.4033 6.96677 57.4013 6.49096C57.287 6.37442 57.2702 6.22839 57.1711 6.0891C57.0395 5.90367 56.7805 5.79851 56.6185 5.64258L56.6194 5.64321Z" fill="#00618A"/>
<mask id="mask0_305_6" style="mask-type:luminance" maskUnits="userSpaceOnUse" x="0" y="25" width="34" height="16">
<path d="M0 25.0605H33.065V40.6733H0V25.0605Z" fill="white"/>
</mask>
<g mask="url(#mask0_305_6)">
<path d="M0.0505371 37.1274H2.68441V27.0474L6.76187 35.838C7.24285 36.8977 7.9017 37.2785 9.19309 37.2785C10.4845 37.2785 11.1177 36.902 11.5993 35.838L15.6772 27.0474V37.1312H18.3115V27.0641C18.3115 26.0821 17.9053 25.6071 17.0699 25.3618C15.0694 24.7562 13.727 25.2801 13.1194 26.5895L9.11807 35.265L5.24261 26.5857C4.66008 25.2763 3.29259 24.7524 1.29191 25.358C0.455848 25.6035 0.0505371 26.0785 0.0505371 27.0603V37.1274ZM20.5007 28.9201H23.1337V34.4759C23.1091 34.7781 23.2335 35.4865 24.6764 35.508C25.4127 35.5194 30.358 35.508 30.4041 35.508V28.8925H33.0429C33.0547 28.8925 33.0401 37.9128 33.0406 37.9514C33.0549 40.176 30.1932 40.6594 28.8746 40.6967H20.5581V38.9786L28.8894 38.9782C30.5843 38.8042 30.3845 37.9878 30.3845 37.7126V37.0427H24.7865C22.182 37.02 20.5237 35.9174 20.5029 34.6497C20.5009 34.5361 20.5592 28.9745 20.5014 28.9197L20.5007 28.9201Z" fill="#00618A"/>
</g>
<path d="M35.0729 37.1341H42.6453C43.5316 37.1341 44.3931 36.9544 45.0774 36.6429C46.2172 36.1357 46.7743 35.4481 46.7743 34.5477V32.6819C46.7743 31.945 46.1411 31.2579 44.9006 30.7995C44.242 30.5534 43.4316 30.423 42.6466 30.423H39.4552C38.3919 30.423 37.8851 30.1117 37.7588 29.4246C37.7333 29.3428 37.7333 29.2731 37.7333 29.1951V28.0331C37.7333 27.9678 37.7333 27.9019 37.7588 27.8201C37.8851 27.2965 38.1638 27.1487 39.1008 27.0632C39.1769 27.0632 39.278 27.0465 39.3546 27.0465H46.8763V25.3447H39.4811C38.4172 25.3447 37.8603 25.4101 37.3534 25.5573C35.7811 26.0323 35.0971 26.7892 35.0971 28.0987V29.5883C35.0971 30.7344 36.44 31.7164 38.6933 31.9455C38.9471 31.9617 39.2 31.9779 39.4528 31.9779H42.1883C42.2898 31.9779 42.3913 31.9779 42.467 31.9946C43.3024 32.0601 43.6577 32.2074 43.9106 32.5018C44.0667 32.6531 44.1135 32.797 44.1135 32.9559V34.4455C44.1135 34.6257 43.9872 34.8551 43.7338 35.0511C43.5057 35.2479 43.1259 35.3784 42.6192 35.4115C42.5177 35.4115 42.442 35.4277 42.3409 35.4277H35.0723V37.1299L35.0729 37.1341ZM63.2049 34.1716C63.2049 35.9231 64.5469 36.9053 67.2569 37.1017C67.5098 37.1206 67.7629 37.1314 68.0164 37.1341H74.8799V35.4319H67.9657C66.421 35.4319 65.8383 35.0553 65.8383 34.1549V25.3481H63.2044V34.1707L63.2049 34.1716ZM48.4545 34.2601V28.1914C48.4545 26.6495 49.5711 25.7143 51.779 25.4191C52.0147 25.3864 52.2517 25.3702 52.4898 25.37H57.4894C57.736 25.3702 57.9813 25.3864 58.2257 25.4191C60.4336 25.7143 61.5499 26.6491 61.5499 28.1914V34.2601C61.5499 35.5109 61.0757 36.1804 59.9826 36.6168L62.5771 38.8876H59.5188L57.4198 37.0505L55.3067 37.1803H52.4898C52.0077 37.1803 51.5002 37.1145 50.9416 36.9668C49.2629 36.5241 48.4549 35.6711 48.4549 34.2601H48.4545ZM51.2975 34.1088C51.2975 34.1909 51.323 34.2727 51.3484 34.3713C51.5045 35.0768 52.1858 35.4705 53.2221 35.4705H55.6151L53.4174 33.5468H56.4755L58.3883 35.2245C58.7416 35.0421 58.9739 34.7626 59.0519 34.4044C59.0774 34.3226 59.0774 34.2405 59.0774 34.1583V28.3393C59.0774 28.274 59.0774 28.188 59.0519 28.1096C58.8958 27.4539 58.2141 27.0765 57.1993 27.0765H53.2291C52.0581 27.0765 51.3008 27.5685 51.3008 28.3393V34.1132L51.2975 34.1088Z" fill="#E48E00"/>
<path d="M77.1958 22.5214C75.5769 22.4791 74.3399 22.6247 73.2827 23.0569C72.9822 23.18 72.5032 23.1829 72.454 23.5481C72.6191 23.7158 72.6452 23.9664 72.7761 24.1727C73.0285 24.5688 73.4551 25.0999 73.835 25.3776C74.2503 25.6817 74.6782 26.007 75.1244 26.2709C75.917 26.7393 76.8016 27.0069 77.5643 27.476C78.014 27.7523 78.4606 28.1004 78.8994 28.4129C79.116 28.5673 79.2623 28.8074 79.5435 28.9039V28.8592C79.3952 28.6763 79.3574 28.4251 79.2215 28.2348L78.6231 27.6545C78.0375 26.8976 77.2949 26.2403 76.5052 25.6903C75.8755 25.252 74.4658 24.6601 74.2031 23.9493L74.157 23.9046C74.6037 23.8555 75.1264 23.6992 75.5391 23.5926C76.2312 23.4126 76.8498 23.459 77.565 23.2803L78.532 23.0122V22.8337C78.1706 22.474 77.9129 21.9984 77.5191 21.6733C76.4884 20.8217 75.363 19.9721 74.2047 19.2624C73.5621 18.869 72.7682 18.6138 72.087 18.2804C71.8578 18.1683 71.4553 18.1101 71.3042 17.923C70.9467 17.4811 70.7519 16.9202 70.476 16.4092C69.8982 15.3307 69.3305 14.1521 68.8184 13.0171C68.469 12.2431 68.2407 11.4797 67.8058 10.7851C65.7153 7.45316 63.4648 5.44201 59.9796 3.46583C59.2379 3.04565 58.3451 2.87918 57.4012 2.66234L55.8817 2.57299C55.5727 2.44803 55.2509 2.08095 54.9606 1.9031C53.8058 1.19528 50.844 -0.34238 49.9888 1.67594C49.4489 2.95251 50.7956 4.1981 51.2778 4.84524C51.6157 5.29935 52.0491 5.80762 52.2905 6.3182C52.4492 6.65346 52.477 6.98999 52.6129 7.34506C52.9474 8.21556 53.2385 9.17036 53.6714 9.97827C53.8902 10.3871 54.1313 10.8178 54.4081 11.1834C54.5779 11.4078 54.8689 11.5067 54.9145 11.8533C54.6303 12.2393 54.6138 12.8372 54.4538 13.3263C53.7345 15.5258 54.0056 18.2595 55.0522 19.8876C55.3736 20.3872 56.1296 21.459 57.1701 21.0481C58.0796 20.6886 57.8728 19.5757 58.137 18.5933C58.1955 18.37 58.1596 18.2073 58.2751 18.0579V18.1025L59.104 19.7091C59.717 20.6666 60.8059 21.6676 61.7281 22.3432C62.2062 22.6932 62.587 23.2988 63.2012 23.5036V23.459H63.1554C63.0353 23.2773 62.8481 23.2027 62.6946 23.0577C62.3343 22.7151 61.9333 22.2894 61.6354 21.8973C60.7963 20.7929 60.0553 19.585 59.3799 18.3265C59.0575 17.726 58.7767 17.0633 58.5056 16.4519C58.401 16.2161 58.4021 15.86 58.1836 15.7378C57.8857 16.186 57.4469 16.5478 57.2166 17.0767C56.848 17.9224 56.8004 18.9532 56.6641 20.0229C56.5834 20.0507 56.6193 20.0315 56.5721 20.0676C55.9311 19.9175 55.7054 19.2775 55.4673 18.7284C54.8645 17.3395 54.753 15.1044 55.2831 13.5064C55.4197 13.0932 56.0402 11.7905 55.7893 11.4085C55.6695 11.0275 55.274 10.8031 55.0526 10.5154C54.7795 10.1559 54.5053 9.68115 54.3161 9.2656C53.8226 8.18332 53.5923 6.9685 53.073 5.87357C52.8249 5.35055 52.4055 4.82142 52.0604 4.35973C51.6788 3.84493 51.2513 3.46499 50.9558 2.84588C50.8503 2.62441 50.7075 2.2706 50.8636 2.04239C50.871 2.00952 50.8832 1.97833 50.8997 1.94904C50.9164 1.91954 50.9369 1.89299 50.9615 1.86917C50.9858 1.84557 51.0134 1.82555 51.0437 1.80933C51.0741 1.79331 51.1063 1.78151 51.14 1.77435C51.407 1.575 52.1511 1.84052 52.429 1.95304C53.1668 2.25059 53.7836 2.53359 54.409 2.93523C54.7095 3.12446 55.0128 3.50124 55.3755 3.60491H55.7893C56.4373 3.74968 57.1635 3.65043 57.7685 3.82828C58.8389 4.14352 59.7976 4.63451 60.6689 5.16722C63.3228 6.7917 65.492 9.10419 66.9762 11.8662C67.2152 12.3102 67.3183 12.7343 67.5285 13.2051C67.953 14.1513 68.4875 15.1326 68.9097 16.0615C69.3314 16.9887 69.7412 17.9234 70.337 18.6947C70.6501 19.0997 71.8593 19.3178 72.4086 19.5424C72.7939 19.7003 73.4247 19.865 73.7898 20.0781C74.4867 20.4856 75.1621 20.9711 75.8159 21.4179C76.1425 21.641 77.1471 22.1305 77.1969 22.5335L77.1958 22.5214Z" fill="#00618A"/>
<path fill-rule="evenodd" clip-rule="evenodd" d="M76.1182 35.5077C76.1182 36.6318 77.0345 37.3895 78.059 37.3895C79.0838 37.3895 79.9999 36.6318 79.9999 35.5077C79.9999 34.3837 79.0838 33.626 78.059 33.626C77.0345 33.626 76.1182 34.3837 76.1182 35.5077ZM79.5653 35.5077C79.5653 36.3608 78.8925 36.9982 78.0584 36.9982C77.2152 36.9982 76.5515 36.3608 76.5515 35.5077C76.5515 34.6547 77.2143 34.0173 78.0584 34.0173C78.8918 34.0173 79.5653 34.6547 79.5653 35.5077ZM78.5813 36.5818H79.016L78.3796 35.6386C78.7212 35.6034 78.9797 35.4426 78.9797 35.0513C78.9797 34.6145 78.6946 34.4343 78.1465 34.4343H77.2819V36.5822H77.6546V35.6538H78.0014L78.5811 36.5822L78.5813 36.5818ZM77.6546 35.3518V34.7348H78.0841C78.3067 34.7348 78.5759 34.7751 78.5759 35.0262C78.5759 35.3272 78.3328 35.3527 78.053 35.3527H77.6546V35.3518Z" fill="#E48E00"/>
</svg>
