<svg width="41" height="41" viewBox="0 0 41 41" fill="none" xmlns="http://www.w3.org/2000/svg">
<mask id="mask0_201_426" style="mask-type:luminance" maskUnits="userSpaceOnUse" x="1" y="2" width="39" height="38">
<path d="M1.72437 2.0332H39.6244V39.3665H1.72437V2.0332Z" fill="white"/>
</mask>
<g mask="url(#mask0_201_426)">
<path d="M20.6744 2.04004C10.2093 2.04004 1.72437 10.5249 1.72437 20.99C1.72437 29.8697 7.83895 37.2997 16.0822 39.3558C15.9937 39.0999 15.9369 38.8031 15.9369 38.4351V35.1962C15.1678 35.1962 13.8793 35.1962 13.5555 35.1962C12.2589 35.1962 11.1062 34.6388 10.5472 33.6029C9.92655 32.4516 9.81916 30.6909 8.28103 29.6139C7.82468 29.2555 8.17207 28.8464 8.69801 28.9017C9.66916 29.1765 10.4746 29.8429 11.2325 30.8314C11.9874 31.8216 12.3427 32.0458 13.7529 32.0458C14.4367 32.0458 15.46 32.0063 16.4232 31.8547C16.9412 30.5393 17.8367 29.3281 18.9309 28.7564C12.6206 28.1073 9.60916 24.968 9.60916 20.7058C9.60916 18.8708 10.3908 17.0959 11.7189 15.6004C11.2831 14.116 10.7351 11.0887 11.8863 9.93587C14.7256 9.93587 16.4422 11.7772 16.8544 12.2746C18.2693 11.7898 19.8232 11.515 21.456 11.515C23.0921 11.515 24.6523 11.7898 26.0704 12.2777C26.4778 11.7835 28.1959 9.93587 31.0415 9.93587C32.1976 11.0902 31.6432 14.1301 31.2027 15.6114C32.5229 17.1037 33.2998 18.874 33.2998 20.7058C33.2998 24.9648 30.2931 28.1026 23.9922 28.7548C25.7261 29.6596 26.991 32.2021 26.991 34.1176V38.4351C26.991 38.5993 26.9547 38.7177 26.9357 38.8583C34.32 36.27 39.6244 29.2586 39.6244 20.99C39.6244 10.5249 31.1395 2.04004 20.6744 2.04004Z" fill="black"/>
</g>
</svg>
