<svg width="51" height="32" viewBox="0 0 51 32" fill="none" xmlns="http://www.w3.org/2000/svg">
<g clip-path="url(#clip0_316_324)">
<mask id="mask0_316_324" style="mask-type:luminance" maskUnits="userSpaceOnUse" x="0" y="0" width="51" height="31">
<path d="M0.928711 0.722168H50.9287V30.7222H0.928711V0.722168Z" fill="white"/>
</mask>
<g mask="url(#mask0_316_324)">
<path fill-rule="evenodd" clip-rule="evenodd" d="M25.9287 0.722168C19.262 0.722168 15.0954 4.0555 13.4287 10.7222C15.9287 7.38883 18.8454 6.13883 22.1787 6.97217C24.0806 7.44717 25.4398 8.82772 26.9445 10.3546C29.3954 12.8425 32.2324 15.7222 38.4287 15.7222C45.0954 15.7222 49.262 12.3888 50.9287 5.72217C48.4287 9.0555 45.512 10.3055 42.1787 9.47217C40.2769 8.99717 38.9176 7.61661 37.413 6.08976C34.962 3.6018 32.125 0.722168 25.9287 0.722168ZM13.4287 15.7222C6.76204 15.7222 2.59538 19.0555 0.928711 25.7222C3.42871 22.3888 6.34538 21.1388 9.67871 21.9722C11.5806 22.4481 12.9398 23.8277 14.4445 25.3546C16.8954 27.8425 19.7324 30.7222 25.9287 30.7222C32.5954 30.7222 36.762 27.3888 38.4287 20.7222C35.9287 24.0555 33.012 25.3055 29.6787 24.4722C27.7769 23.9972 26.4176 22.6166 24.913 21.0898C22.462 18.6018 19.625 15.7222 13.4287 15.7222Z" fill="#38BDF8"/>
</g>
</g>
<defs>
<clipPath id="clip0_316_324">
<rect width="50" height="30.5556" fill="white" transform="translate(0.928711 0.722168)"/>
</clipPath>
</defs>
</svg>
