<svg width="45" height="45" viewBox="0 0 45 45" fill="none" xmlns="http://www.w3.org/2000/svg">
<path d="M9.61514 28.3077L13.3698 4.24676C13.4999 3.42762 14.6003 3.23074 14.987 3.96551L19.0229 11.5171L9.61514 28.3077V28.3077ZM36.3128 34.1542L32.7304 11.9917C32.6214 11.3026 31.7601 11.0214 31.2644 11.5171L8.68701 34.1542L21.1815 41.1679C21.5682 41.3806 22.0023 41.4922 22.4437 41.4922C22.885 41.4922 23.3191 41.3806 23.7058 41.1679L36.3128 34.1542V34.1542ZM26.1702 14.8182L23.2769 9.31629C22.9534 8.69051 22.0675 8.69051 21.744 9.31629L9.03506 31.9745L26.1702 14.8182V14.8182Z" fill="#F58220"/>
</svg>
