<svg width="45" height="45" viewBox="0 0 45 45" fill="none" xmlns="http://www.w3.org/2000/svg">
<path d="M31.5381 17.1804L31.2716 17.0349C31.4119 17.3738 31.4576 17.6628 31.4527 17.9212C31.5051 17.7085 31.5343 17.4908 31.5398 17.2718C31.5439 17.5364 31.5116 17.8004 31.4439 18.0562L31.4527 17.9208C31.3768 18.2392 31.2492 18.543 31.0751 18.8201L31.1577 18.7322C30.1452 20.4264 27.383 20.7966 26.0207 19.0469C23.8339 16.2379 26.0657 13.2095 26.3782 10.235C26.7688 6.50699 24.4312 2.88766 21.5326 0.72168C23.1291 3.30426 21.0257 6.72144 19.3427 8.63113C17.7108 10.4835 15.7266 12.0297 13.9252 13.7116C11.9905 15.5196 10.1293 17.4223 8.53957 19.5433C5.35828 23.788 3.41027 29.1269 4.84184 34.4232C6.27199 39.7163 10.8564 43.0853 16.0335 44.2764C13.4217 43.1472 10.9777 40.2781 10.972 37.3425C10.9654 34.1412 12.9935 31.424 15.5167 29.6384C15.2133 30.7841 15.0477 31.8321 15.799 32.857C16.4979 33.81 17.7213 34.2727 18.8762 34.0213C21.5759 33.4311 21.6993 30.4635 20.0993 28.7345C18.5169 27.0231 16.9862 25.0885 17.5881 22.6057C17.8897 21.3612 18.654 20.1961 19.6226 19.3622C18.878 21.318 20.9926 23.2466 22.3855 24.2064C24.8029 25.8732 27.4536 27.1332 29.6762 29.0864C32.0134 31.1396 33.7399 33.9155 33.3912 37.1358C33.0129 40.6258 30.2398 43.0533 27.1295 44.2785C33.7023 42.8273 40.4952 37.7257 40.6334 30.4354C40.749 24.4384 36.635 19.8228 31.5381 17.1804V17.1804Z" fill="#EE4323"/>
</svg>
