<svg width="40" height="40" viewBox="0 0 40 40" fill="none" xmlns="http://www.w3.org/2000/svg">
<path d="M35.1668 18.4166L21.5834 4.83329C21.1667 4.41663 20.5834 4.16663 20.0001 4.16663C19.4167 4.16663 18.8334 4.41663 18.4167 4.83329L15.5001 7.74996L18.9167 11.1666C19.2501 11 19.5834 10.9166 20.0001 10.9166C21.4167 10.9166 22.5001 12 22.5001 13.4166C22.5001 13.8333 22.4167 14.1666 22.2501 14.5L25.5834 17.8333C25.9167 17.6666 26.2501 17.5833 26.6667 17.5833C28.0834 17.5833 29.1667 18.6666 29.1667 20.0833C29.1667 21.5 28.0834 22.5833 26.6667 22.5833C25.2501 22.5833 24.1667 21.5 24.1667 20.0833C24.1667 19.6666 24.2501 19.3333 24.4167 19L21.0834 15.6666C21.0001 15.6666 20.9167 15.75 20.8334 15.75V24.4166C21.8334 24.75 22.5001 25.6666 22.5001 26.75C22.5001 28.1666 21.4167 29.25 20.0001 29.25C18.5834 29.25 17.5001 28.1666 17.5001 26.75C17.5001 25.6666 18.1667 24.75 19.1667 24.4166V15.6666C18.1667 15.3333 17.5001 14.4166 17.5001 13.3333C17.5001 12.9166 17.5834 12.5833 17.7501 12.25L14.3334 8.83329L4.83341 18.4166C4.41675 18.8333 4.16675 19.4166 4.16675 20C4.16675 20.5833 4.41675 21.1666 4.83341 21.5833L18.4167 35.1666C18.8334 35.5833 19.4167 35.8333 20.0001 35.8333C20.5834 35.8333 21.1667 35.5833 21.5834 35.1666L35.1668 21.5833C35.5834 21.1666 35.8334 20.5833 35.8334 20C35.8334 19.4166 35.5834 18.8333 35.1668 18.4166Z" fill="#F4511E"/>
</svg>
