<svg width="45" height="45" viewBox="0 0 45 45" fill="none" xmlns="http://www.w3.org/2000/svg">
<path d="M43.853 20.5235L24.4763 1.14744C23.3612 0.0315821 21.5513 0.0315821 20.4344 1.14744L16.4111 5.17143L21.5151 10.2754C22.7016 9.87498 24.0615 10.1436 25.0068 11.0889C25.9571 12.0403 26.2236 13.4117 25.8133 14.6021L30.7324 19.5215C31.9224 19.1112 33.296 19.3763 34.2459 20.3283C35.5748 21.6562 35.5748 23.8088 34.2459 25.1374C33.9301 25.4533 33.5551 25.704 33.1424 25.875C32.7297 26.046 32.2874 26.134 31.8407 26.134C31.394 26.134 30.9516 26.046 30.5389 25.875C30.1262 25.704 29.7513 25.4533 29.4355 25.1374C28.961 24.6626 28.6376 24.0581 28.5059 23.3999C28.3742 22.7418 28.4401 22.0593 28.6954 21.4386L24.1082 16.8514L24.1075 28.9244C24.4403 29.0883 24.7442 29.3054 25.0072 29.5671C26.3354 30.8949 26.3354 33.0468 25.0072 34.3775C23.6786 35.7053 21.5253 35.7053 20.1982 34.3775C18.87 33.0472 18.87 30.8953 20.1982 29.5671C20.5164 29.2483 20.8949 28.9962 21.3116 28.8253V16.6404C20.8945 16.47 20.5159 16.2177 20.1982 15.8983C19.192 14.8928 18.9498 13.4163 19.4659 12.1802L14.4339 7.14826L1.14769 20.4338C0.611666 20.97 0.310547 21.6971 0.310547 22.4553C0.310547 23.2135 0.611666 23.9406 1.14769 24.4768L20.5248 43.8528C21.6406 44.9687 23.4498 44.9687 24.5674 43.8528L43.8534 24.5668C44.3893 24.0304 44.6903 23.3032 44.6902 22.545C44.6902 21.7868 44.389 21.0597 43.853 20.5235V20.5235Z" fill="#F34F29"/>
</svg>
