<svg width="40" height="40" viewBox="0 0 40 40" fill="none" xmlns="http://www.w3.org/2000/svg">
<path d="M0 40V0H40V40H0Z" fill="#FFD600"/>
<path d="M26.1534 29.9412C26.9223 31.1901 27.7579 32.3867 29.5279 32.3867C31.0146 32.3867 31.7946 31.6478 31.7946 30.6256C31.7946 29.4023 30.9879 28.9678 29.3523 28.2556L28.4557 27.8734C25.8679 26.7756 24.1468 25.4001 24.1468 22.4945C24.1468 19.8167 26.1968 17.7789 29.4001 17.7789C31.6812 17.7789 33.3201 18.5689 34.5023 20.6378L31.709 22.4234C31.0946 21.3256 30.4301 20.8934 29.4001 20.8934C28.349 20.8934 27.6835 21.5567 27.6835 22.4234C27.6835 23.4945 28.3501 23.9278 29.889 24.5912L30.7857 24.9734C33.8357 26.2723 35.5557 27.5989 35.5557 30.5812C35.5557 33.7945 33.0179 35.5556 29.6112 35.5556C26.279 35.5556 24.3868 33.8834 23.3334 31.8134L26.1534 29.9412ZM13.2801 30.0323C13.8423 31.0389 14.6968 31.8134 15.9257 31.8134C17.1012 31.8134 17.7779 31.3489 17.7779 29.5434V17.7778H21.4812V30.1123C21.4812 33.8534 19.3112 35.5556 16.1423 35.5556C13.279 35.5556 11.2123 33.6156 10.3701 31.8134L13.2801 30.0323Z" fill="#000001"/>
</svg>
