<svg width="55" height="35" viewBox="0 0 55 35" fill="none" xmlns="http://www.w3.org/2000/svg">
<mask id="mask0_306_19" style="mask-type:luminance" maskUnits="userSpaceOnUse" x="0" y="0" width="55" height="35">
<path d="M0 0H55V35H0V0Z" fill="white"/>
</mask>
<g mask="url(#mask0_306_19)">
<mask id="mask1_306_19" style="mask-type:luminance" maskUnits="userSpaceOnUse" x="0" y="0" width="55" height="35">
<path d="M0 17.5096C0 27.1689 12.3124 34.9998 27.4993 34.9998C42.6861 34.9998 54.9985 27.1689 54.9985 17.5096C54.9985 7.85021 42.6861 0.0195312 27.4993 0.0195312C12.3124 0.0195312 0 7.85058 0 17.5096Z" fill="white"/>
</mask>
<g mask="url(#mask1_306_19)">
<mask id="mask2_306_19" style="mask-type:luminance" maskUnits="userSpaceOnUse" x="-1" y="0" width="56" height="35">
<path d="M-0.00012207 17.5066C-0.00012207 27.166 12.3123 34.9968 27.4991 34.9968C42.686 34.9968 54.9984 27.166 54.9984 17.5066C54.9984 7.84728 42.686 0.0166016 27.4991 0.0166016C12.3123 0.0166016 -0.00012207 7.84765 -0.00012207 17.5066Z" fill="white"/>
</mask>
<g mask="url(#mask2_306_19)">
<path d="M-0.00012207 0.0166016V34.9968H54.9984V0.0166016H-0.00012207Z" fill="url(#paint0_radial_306_19)"/>
</g>
</g>
</g>
<path d="M27.4992 33.697C42.0934 33.697 53.9244 26.448 53.9244 17.5057C53.9244 8.56345 42.0934 1.31445 27.4992 1.31445C12.9052 1.31445 1.07422 8.56345 1.07422 17.5057C1.07422 26.448 12.9052 33.697 27.4992 33.697Z" fill="#777BB3"/>
<path d="M14.9402 19.5122C16.1403 19.5122 17.036 19.2447 17.6027 18.7174C18.1635 18.1954 18.5508 17.291 18.7539 16.0293C18.9432 14.85 18.871 14.0266 18.5396 13.5823C18.2008 13.1285 17.4682 12.8982 16.3621 12.8982H14.4444L13.3813 19.5124H14.9402V19.5122ZM8.6681 27.66C8.57907 27.66 8.49463 27.612 8.43799 27.5287C8.40959 27.487 8.38992 27.4402 8.37898 27.388C8.36804 27.3358 8.36685 27.2832 8.37528 27.2304L11.1928 9.70307C11.1961 9.68258 11.2008 9.66281 11.207 9.64341C11.2131 9.62401 11.2205 9.60533 11.2294 9.58738C11.2381 9.56961 11.2481 9.55275 11.2592 9.53697C11.2705 9.5212 11.2828 9.50669 11.2959 9.49364C11.3092 9.4804 11.3233 9.46861 11.3384 9.45828C11.3533 9.44812 11.3688 9.43942 11.3849 9.43235C11.4011 9.42546 11.4176 9.42002 11.4346 9.41657C11.4515 9.41295 11.4686 9.41113 11.4858 9.41113H17.5584C19.4669 9.41113 20.8873 10.0365 21.7803 11.2735C22.6778 12.5158 22.9551 14.2525 22.604 16.4349C22.4611 17.3241 22.2155 18.1499 21.874 18.8895C21.5318 19.6297 21.0799 20.3145 20.5303 20.9254C19.8722 21.6699 19.1275 22.2099 18.3187 22.5276C17.5226 22.8411 16.5005 23.0003 15.2803 23.0003H12.8214L12.1192 27.3683C12.1158 27.3886 12.1112 27.4085 12.105 27.4279C12.0989 27.4473 12.0916 27.466 12.0827 27.4838C12.074 27.5017 12.0639 27.5186 12.0528 27.5343C12.0416 27.5501 12.0293 27.5646 12.0161 27.5777C12.0028 27.5909 11.9888 27.6027 11.9738 27.613C11.9589 27.6232 11.9434 27.6319 11.9271 27.639C11.911 27.646 11.8944 27.6513 11.8776 27.6549C11.8606 27.6584 11.8435 27.6602 11.8264 27.6602H8.66736L8.6681 27.66Z" fill="black"/>
<path d="M14.6904 13.2597H16.3622C17.697 13.2597 18.1608 13.614 18.3183 13.8249C18.5797 14.1754 18.629 14.9143 18.461 15.9616C18.2723 17.1341 17.9224 17.9654 17.4209 18.4322C16.9074 18.9101 16.0727 19.1524 14.9404 19.1524H13.7438L14.6909 13.2597H14.6904ZM17.558 9.05078H11.4857C11.4514 9.05078 11.4172 9.05441 11.3835 9.06148C11.3497 9.06855 11.3165 9.07925 11.2841 9.09321C11.2518 9.10735 11.2207 9.12458 11.1908 9.14507C11.161 9.16574 11.1327 9.18913 11.1062 9.21561C11.0798 9.24208 11.0552 9.27109 11.0329 9.30246C11.0106 9.33401 10.9906 9.36774 10.973 9.40346C10.9554 9.43918 10.9405 9.47635 10.9283 9.51515C10.9161 9.55396 10.9066 9.59385 10.9001 9.63465L8.08253 27.1631C8.07838 27.1892 8.07543 27.2155 8.07365 27.2418C8.07188 27.2683 8.07129 27.2948 8.07188 27.3212C8.07247 27.3479 8.07439 27.3742 8.07735 27.4005C8.08045 27.4268 8.0846 27.4527 8.09007 27.4784C8.09539 27.5042 8.10205 27.5294 8.10974 27.5542C8.11743 27.5791 8.12615 27.6034 8.13606 27.6269C8.14597 27.6507 8.15706 27.6735 8.16904 27.6957C8.18102 27.718 8.19403 27.7392 8.20793 27.7597C8.22184 27.7802 8.23677 27.7997 8.25245 27.8181C8.26812 27.8366 8.28469 27.854 8.30199 27.8703C8.31929 27.8866 8.33734 27.9016 8.35597 27.9156C8.37475 27.9294 8.39398 27.9421 8.41379 27.9533C8.43361 27.9646 8.45387 27.9745 8.47472 27.9832C8.49543 27.9918 8.51658 27.999 8.53787 28.0048C8.55931 28.0106 8.58091 28.015 8.60279 28.0179C8.62453 28.0208 8.64642 28.0222 8.66831 28.0222H11.8263C11.8606 28.0222 11.8948 28.0188 11.9286 28.0115C11.9625 28.0045 11.9956 27.9939 12.0279 27.9798C12.0603 27.9658 12.0913 27.9486 12.1212 27.9279C12.1511 27.9075 12.1793 27.8841 12.2058 27.8576C12.2324 27.8311 12.2568 27.8021 12.2791 27.7706C12.3016 27.739 12.3216 27.7055 12.3392 27.6697C12.3568 27.634 12.3716 27.5967 12.3838 27.5579C12.3961 27.5191 12.4056 27.4793 12.4121 27.4385L13.0674 23.3624H15.2804C16.5318 23.3624 17.5853 23.1974 18.4114 22.8721C19.2608 22.5384 20.0426 21.9725 20.7343 21.1905C21.3063 20.554 21.7785 19.8398 22.1347 19.067C22.4908 18.2943 22.7484 17.4323 22.8973 16.5054C23.2669 14.208 22.9667 12.3683 22.0053 11.0377C21.0532 9.72005 19.557 9.05187 17.5586 9.05187M13.0199 19.875H14.9408C16.214 19.875 17.1624 19.5852 17.7854 19.005C18.4085 18.4249 18.8289 17.4566 19.0474 16.1C19.2563 14.7973 19.1612 13.8782 18.7619 13.3426C18.3626 12.8069 17.5624 12.5391 16.3629 12.5391H14.1992L13.0201 19.8748M17.5587 9.77336C19.3856 9.77336 20.7182 10.3529 21.556 11.5123C22.3936 12.6715 22.6458 14.2898 22.3115 16.3676C22.174 17.2234 21.9414 18.0059 21.6138 18.715C21.2862 19.424 20.8577 20.073 20.3285 20.6612C19.6979 21.3747 18.9975 21.8829 18.2266 22.1861C17.4558 22.4897 16.4741 22.6409 15.2805 22.6409H12.5756L11.8266 27.3007H8.66875L11.4865 9.77463H17.5592" fill="white"/>
<path d="M29.8447 22.9998C29.7555 22.9998 29.6711 22.9518 29.6146 22.8686C29.5579 22.7853 29.5347 22.6762 29.5519 22.5703L30.7981 14.815C30.9167 14.0776 30.8875 13.5481 30.7159 13.3244C30.6109 13.1876 30.2953 12.9585 29.3624 12.9585H27.1045L25.5375 22.7077C25.5342 22.7282 25.5295 22.7482 25.5234 22.7676C25.5172 22.787 25.5098 22.8056 25.5011 22.8234C25.4922 22.8414 25.4823 22.8581 25.4711 22.8738C25.4598 22.8896 25.4477 22.9041 25.4344 22.9173C25.4211 22.9306 25.407 22.9424 25.3921 22.9527C25.3772 22.9629 25.3616 22.9716 25.3454 22.9786C25.3292 22.9855 25.3127 22.991 25.2958 22.9944C25.2788 22.998 25.2618 22.9998 25.2445 22.9998H22.1115C22.0895 22.9998 22.0677 22.9969 22.0463 22.9911C22.0248 22.9853 22.0041 22.9766 21.9843 22.9654C21.9644 22.954 21.9457 22.9402 21.9283 22.9239C21.911 22.9076 21.8953 22.8891 21.8812 22.8686C21.8673 22.8481 21.8554 22.826 21.8453 22.8022C21.8354 22.7784 21.8277 22.7536 21.8224 22.7279C21.8169 22.7021 21.814 22.6758 21.8132 22.6493C21.8126 22.6227 21.8144 22.5964 21.8185 22.5703L24.6361 5.04291C24.6395 5.02242 24.6441 5.00266 24.6503 4.98325C24.6564 4.96367 24.6639 4.94518 24.6726 4.92722C24.6815 4.90945 24.6914 4.89259 24.7026 4.87682C24.7137 4.86104 24.726 4.84653 24.7393 4.8333C24.7525 4.82024 24.7667 4.80846 24.7816 4.79812C24.7966 4.78797 24.8121 4.77926 24.8282 4.77219C24.8445 4.76512 24.861 4.75986 24.8779 4.75642C24.8949 4.75279 24.9119 4.75098 24.9291 4.75098H28.0622C28.0841 4.75098 28.1058 4.75388 28.1274 4.75968C28.1489 4.76548 28.1696 4.77419 28.1894 4.78543C28.2094 4.79685 28.228 4.81063 28.2453 4.82695C28.2627 4.84327 28.2784 4.86177 28.2923 4.88226C28.3064 4.90275 28.3184 4.92487 28.3283 4.94862C28.3382 4.97237 28.3459 4.99722 28.3513 5.02296C28.3568 5.04871 28.3598 5.07482 28.3604 5.10148C28.3611 5.12813 28.3593 5.15442 28.355 5.18053L27.6752 9.41102H30.1042C31.9546 9.41102 33.2094 9.8054 33.9405 10.6168C34.6864 11.4448 34.9178 12.7682 34.6314 14.5518L33.3205 22.7081C33.3173 22.7284 33.3125 22.7483 33.3065 22.7678C33.3002 22.7872 33.2929 22.8058 33.284 22.8238C33.2753 22.8415 33.2652 22.8584 33.2541 22.8742C33.2429 22.89 33.2306 22.9045 33.2174 22.9177C33.2041 22.9309 33.1901 22.9425 33.1751 22.9529C33.1602 22.9632 33.1447 22.9717 33.1284 22.9788C33.1123 22.9859 33.0957 22.9911 33.0787 22.9948C33.0619 22.9982 33.0447 23 33.0275 23H29.8449L29.8447 22.9998Z" fill="black"/>
<path d="M28.0624 4.38983H24.9294C24.8949 4.38983 24.8608 4.39327 24.8269 4.40053C24.793 4.4076 24.7601 4.41812 24.7277 4.43226C24.6953 4.44622 24.6642 4.46345 24.6344 4.48412C24.6045 4.50461 24.5762 4.528 24.5498 4.55447C24.5231 4.58095 24.4987 4.60996 24.4764 4.64151C24.4539 4.67306 24.434 4.7066 24.4164 4.74232C24.3989 4.77805 24.384 4.8154 24.3717 4.8542C24.3594 4.89301 24.3501 4.9329 24.3435 4.97369L21.5259 22.5009C21.5218 22.527 21.5188 22.5533 21.517 22.5796C21.5151 22.6061 21.5147 22.6325 21.5153 22.659C21.5159 22.6857 21.5176 22.712 21.5207 22.7382C21.5237 22.7645 21.528 22.7905 21.5333 22.8162C21.5388 22.842 21.5453 22.8672 21.553 22.892C21.5607 22.9169 21.5695 22.9411 21.5794 22.9647C21.5894 22.9885 21.6003 23.0113 21.6124 23.0336C21.6244 23.0557 21.6374 23.0771 21.6513 23.0975C21.6652 23.1179 21.6802 23.1375 21.6958 23.156C21.7115 23.1745 21.7281 23.1919 21.7454 23.2081C21.7627 23.2244 21.7807 23.2394 21.7994 23.2534C21.8181 23.2672 21.8374 23.2799 21.8572 23.2911C21.877 23.3025 21.8974 23.3125 21.9181 23.321C21.9388 23.3297 21.96 23.3368 21.9814 23.3426C22.0027 23.3484 22.0243 23.3528 22.0462 23.3557C22.0679 23.3586 22.0898 23.36 22.1117 23.36H25.2448C25.2791 23.36 25.3133 23.3566 25.3472 23.3493C25.381 23.3422 25.4142 23.3317 25.4464 23.3176C25.4788 23.3036 25.51 23.2864 25.5399 23.2657C25.5697 23.2452 25.5978 23.2217 25.6245 23.1954C25.6509 23.1689 25.6753 23.1399 25.6978 23.1083C25.7201 23.0768 25.7401 23.0432 25.7577 23.0075C25.7753 22.9718 25.7902 22.9344 25.8024 22.8956C25.8146 22.8568 25.8241 22.8169 25.8306 22.7763L27.3508 13.3186H29.3628C30.2942 13.3186 30.4895 13.5592 30.4974 13.5696C30.5539 13.6428 30.6282 13.9832 30.5055 14.7456L29.2592 22.5009C29.2551 22.527 29.2521 22.5533 29.2504 22.5796C29.2486 22.6061 29.248 22.6325 29.2486 22.659C29.2492 22.6857 29.2511 22.712 29.2541 22.7382C29.2572 22.7645 29.2613 22.7905 29.2668 22.8162C29.2721 22.842 29.2786 22.8672 29.2865 22.892C29.2941 22.9169 29.3029 22.9411 29.3128 22.9647C29.3227 22.9885 29.3338 23.0113 29.3458 23.0336C29.3577 23.0557 29.3708 23.0771 29.3847 23.0976C29.3986 23.1179 29.4135 23.1375 29.4292 23.156C29.445 23.1745 29.4614 23.1919 29.4787 23.2081C29.496 23.2244 29.5141 23.2394 29.5328 23.2534C29.5515 23.2672 29.5707 23.2799 29.5905 23.2911C29.6105 23.3025 29.6307 23.3125 29.6514 23.321C29.6721 23.3297 29.6933 23.3368 29.7147 23.3426C29.7362 23.3484 29.7578 23.3528 29.7795 23.3557C29.8013 23.3586 29.8231 23.36 29.8452 23.36H33.0279C33.0623 23.36 33.0963 23.3566 33.1302 23.3493C33.1641 23.3422 33.1972 23.3317 33.2296 23.3176C33.262 23.3036 33.293 23.2864 33.3229 23.2657C33.3528 23.2452 33.381 23.2217 33.4075 23.1954C33.4341 23.1689 33.4585 23.1399 33.4808 23.1083C33.5033 23.0768 33.5233 23.0432 33.5407 23.0075C33.5583 22.9718 33.5733 22.9344 33.5856 22.8956C33.5978 22.8568 33.6071 22.8169 33.6138 22.7763L34.9247 14.6198C35.2323 12.7054 34.9692 11.2691 34.1429 10.3507C33.3544 9.47526 32.0335 9.04951 30.1047 9.04951H28.0375L28.6485 5.24895C28.6528 5.22283 28.6557 5.19654 28.6575 5.17007C28.6593 5.14378 28.6599 5.1173 28.6593 5.09065C28.6587 5.06418 28.6568 5.03788 28.6538 5.01159C28.6507 4.9853 28.6465 4.95937 28.6411 4.93362C28.6358 4.90787 28.6291 4.88267 28.6214 4.85783C28.6137 4.83299 28.605 4.80869 28.5951 4.78494C28.585 4.76136 28.5741 4.73834 28.5621 4.71621C28.5501 4.69409 28.5371 4.6727 28.5232 4.65221C28.5092 4.63172 28.4944 4.61232 28.4787 4.59382C28.4629 4.57532 28.4465 4.55792 28.429 4.5416C28.4117 4.52528 28.3938 4.51023 28.375 4.49645C28.3564 4.48249 28.337 4.46979 28.3172 4.45855C28.2974 4.44731 28.2771 4.43734 28.2564 4.42863C28.2356 4.42011 28.2146 4.41286 28.1931 4.40706C28.1717 4.40125 28.1501 4.3969 28.1283 4.394C28.1065 4.3911 28.0846 4.38965 28.0627 4.38965M28.0627 5.11114L27.3138 9.77118H30.1049C31.861 9.77118 33.0724 10.1418 33.7392 10.882C34.406 11.6223 34.6055 12.8231 34.3392 14.4824L33.0282 22.6385H29.8455L31.0917 14.8834C31.2335 14.0013 31.1813 13.3995 30.9351 13.0787C30.6889 12.7578 30.1648 12.5971 29.3632 12.5971H26.8587L25.2448 22.6385H22.1118L24.9294 5.11114H28.0624" fill="white"/>
<path d="M39.5888 19.5125C40.7888 19.5125 41.6847 19.2451 42.2514 18.7178C42.8122 18.1958 43.1995 17.2915 43.4026 16.0297C43.5919 14.8503 43.5197 14.0269 43.1883 13.5827C42.8493 13.1288 42.1167 12.8985 41.0108 12.8985H39.0931L38.0298 19.5127H39.5887L39.5888 19.5125ZM33.3165 27.66C33.2274 27.66 33.143 27.612 33.0864 27.5287C33.058 27.487 33.0383 27.4402 33.0274 27.388C33.0164 27.3358 33.0151 27.2832 33.0237 27.2304L35.8412 9.70307C35.8445 9.68258 35.8492 9.66281 35.8553 9.64341C35.8615 9.62383 35.8689 9.60533 35.8777 9.58738C35.8865 9.56961 35.8965 9.55275 35.9076 9.53697C35.9189 9.5212 35.9311 9.50669 35.9443 9.49345C35.9576 9.48022 35.9717 9.46861 35.9866 9.45828C36.0015 9.44794 36.0172 9.43942 36.0333 9.43235C36.0496 9.42528 36.0662 9.42002 36.083 9.41657C36.1 9.41295 36.117 9.41113 36.1342 9.41113H42.2066C44.1154 9.41113 45.5357 10.0365 46.4286 11.2735C47.3263 12.5158 47.6033 14.2523 47.2525 16.4349C47.1094 17.3241 46.8639 18.1499 46.5223 18.8895C46.18 19.6297 45.7281 20.3145 45.1785 20.9254C44.5204 21.6699 43.7757 22.2099 42.9669 22.5276C42.1708 22.8411 41.1486 23.0003 39.9285 23.0003H37.4678L36.7658 27.3683C36.7626 27.3886 36.7578 27.4085 36.7518 27.4279C36.7457 27.4473 36.7382 27.466 36.7294 27.4839C36.7206 27.5017 36.7106 27.5186 36.6994 27.5343C36.6882 27.5501 36.676 27.5646 36.6627 27.5779C36.6494 27.5911 36.6354 27.6029 36.6204 27.613C36.6055 27.6234 36.59 27.6321 36.5737 27.639C36.5576 27.646 36.541 27.6513 36.524 27.6549C36.5072 27.6584 36.49 27.6602 36.4728 27.6602H33.315L33.3165 27.66Z" fill="black"/>
<path d="M39.3391 13.2597H41.0109C42.3457 13.2597 42.8095 13.614 42.967 13.8249C43.2286 14.1754 43.2778 14.9143 43.1097 15.9614C42.921 17.1339 42.5709 17.9654 42.0696 18.4322C41.5561 18.9101 40.7214 19.1524 39.5889 19.1524H38.3921L39.3391 13.2597ZM42.2065 9.05078H36.134C36.0997 9.05078 36.0655 9.05441 36.0316 9.06148C35.9979 9.06855 35.9648 9.07925 35.9324 9.09321C35.9 9.10735 35.8689 9.12458 35.8391 9.14507C35.8092 9.16574 35.781 9.18913 35.7545 9.21561C35.728 9.24208 35.7035 9.27109 35.6811 9.30246C35.6588 9.33401 35.6388 9.36774 35.6212 9.40346C35.6036 9.43918 35.5887 9.47635 35.5764 9.51515C35.5643 9.55396 35.5548 9.59385 35.5483 9.63465L32.7305 27.1631C32.7263 27.1892 32.7234 27.2155 32.7216 27.2418C32.7198 27.2683 32.7192 27.2948 32.7198 27.3212C32.7204 27.3479 32.7223 27.3742 32.7253 27.4005C32.7284 27.4268 32.7325 27.4527 32.738 27.4784C32.7433 27.5042 32.7498 27.5294 32.7577 27.5542C32.7654 27.5791 32.7741 27.6034 32.784 27.6269C32.7939 27.6507 32.8049 27.6735 32.817 27.6957C32.829 27.718 32.842 27.7392 32.8559 27.7597C32.8698 27.7802 32.8847 27.7997 32.9004 27.8181C32.9161 27.8366 32.9326 27.854 32.9499 27.8703C32.9672 27.8866 32.9853 27.9016 33.0039 27.9156C33.0227 27.9294 33.0419 27.9421 33.0617 27.9533C33.0816 27.9646 33.1018 27.9745 33.1227 27.9832C33.1434 27.9918 33.1644 27.999 33.1858 28.0048C33.2073 28.0106 33.2289 28.015 33.2506 28.0179C33.2725 28.0208 33.2944 28.0222 33.3163 28.0222H36.4743C36.5086 28.0222 36.5427 28.0188 36.5766 28.0117C36.6105 28.0045 36.6434 27.9939 36.6758 27.9798C36.7082 27.9658 36.7393 27.9486 36.7691 27.9279C36.799 27.9075 36.8273 27.8841 36.8537 27.8576C36.8803 27.8311 36.9048 27.8021 36.9271 27.7706C36.9496 27.739 36.9695 27.7055 36.9871 27.6697C37.0046 27.634 37.0195 27.5967 37.0318 27.5579C37.0441 27.5191 37.0535 27.4793 37.06 27.4385L37.7152 23.3624H39.9282C41.1796 23.3624 42.2331 23.1974 43.0592 22.8721C43.9087 22.5384 44.6904 21.9725 45.3823 21.1901C45.9544 20.554 46.4255 19.8398 46.7825 19.067C47.1396 18.2943 47.3962 17.4323 47.5453 16.5054C47.9147 14.2078 47.6145 12.3681 46.6531 11.0377C45.701 9.72005 44.2049 9.05187 42.2065 9.05187M37.6679 19.875H39.5886C40.8618 19.875 41.8102 19.5852 42.4332 19.005C43.0563 18.4249 43.4769 17.4566 43.6952 16.1C43.9043 14.7973 43.8092 13.8782 43.4097 13.3426C43.0104 12.8069 42.2102 12.5391 41.0107 12.5391H38.8471L37.668 19.8748M42.2065 9.77336C44.0334 9.77336 45.3661 10.3529 46.2038 11.5123C47.0414 12.6715 47.2936 14.2898 46.9593 16.3676C46.8218 17.2234 46.5892 18.0059 46.2616 18.715C45.9342 19.424 45.5056 20.073 44.9765 20.6612C44.3459 21.3747 43.6453 21.8829 42.8745 22.1861C42.1036 22.4897 41.1219 22.6409 39.9285 22.6409H37.2234L36.4745 27.3007H33.3166L36.1341 9.77336H42.2067" fill="white"/>
<defs>
<radialGradient id="paint0_radial_306_19" cx="0" cy="0" r="1" gradientUnits="userSpaceOnUse" gradientTransform="translate(16.5106 6.16531) scale(36.1107 43.6603)">
<stop stop-color="#AEB2D5"/>
<stop offset="0.25" stop-color="#AEB2D5"/>
<stop offset="0.296875" stop-color="#AEB2D5"/>
<stop offset="0.300781" stop-color="#ADB1D4"/>
<stop offset="0.304688" stop-color="#ACB0D4"/>
<stop offset="0.308594" stop-color="#ACB0D3"/>
<stop offset="0.3125" stop-color="#ABAFD2"/>
<stop offset="0.316406" stop-color="#AAAED2"/>
<stop offset="0.320312" stop-color="#A9ADD1"/>
<stop offset="0.324219" stop-color="#A8ACD1"/>
<stop offset="0.328125" stop-color="#A7ABD0"/>
<stop offset="0.332031" stop-color="#A6AACF"/>
<stop offset="0.335938" stop-color="#A5A9CF"/>
<stop offset="0.339844" stop-color="#A4A9CE"/>
<stop offset="0.34375" stop-color="#A4A8CD"/>
<stop offset="0.347656" stop-color="#A3A7CD"/>
<stop offset="0.351562" stop-color="#A2A6CC"/>
<stop offset="0.355469" stop-color="#A1A5CB"/>
<stop offset="0.359375" stop-color="#A0A4CB"/>
<stop offset="0.363281" stop-color="#9FA3CA"/>
<stop offset="0.367188" stop-color="#9EA2C9"/>
<stop offset="0.371094" stop-color="#9DA1C9"/>
<stop offset="0.375" stop-color="#9CA1C8"/>
<stop offset="0.378906" stop-color="#9CA0C7"/>
<stop offset="0.382812" stop-color="#9B9FC7"/>
<stop offset="0.386719" stop-color="#9A9EC6"/>
<stop offset="0.390625" stop-color="#999DC5"/>
<stop offset="0.394531" stop-color="#989CC5"/>
<stop offset="0.398438" stop-color="#979BC4"/>
<stop offset="0.402344" stop-color="#969AC3"/>
<stop offset="0.40625" stop-color="#9599C3"/>
<stop offset="0.410156" stop-color="#9499C2"/>
<stop offset="0.414062" stop-color="#9498C1"/>
<stop offset="0.417969" stop-color="#9397C1"/>
<stop offset="0.421875" stop-color="#9296C0"/>
<stop offset="0.425781" stop-color="#9195BF"/>
<stop offset="0.429688" stop-color="#9094BF"/>
<stop offset="0.433594" stop-color="#8F93BE"/>
<stop offset="0.4375" stop-color="#8E92BD"/>
<stop offset="0.441406" stop-color="#8D91BD"/>
<stop offset="0.445312" stop-color="#8D91BC"/>
<stop offset="0.449219" stop-color="#8C90BB"/>
<stop offset="0.453125" stop-color="#8B8FBB"/>
<stop offset="0.457031" stop-color="#8A8EBA"/>
<stop offset="0.460938" stop-color="#898DB9"/>
<stop offset="0.464844" stop-color="#888CB9"/>
<stop offset="0.46875" stop-color="#878BB8"/>
<stop offset="0.472656" stop-color="#868AB7"/>
<stop offset="0.476562" stop-color="#858AB7"/>
<stop offset="0.480469" stop-color="#8589B6"/>
<stop offset="0.484375" stop-color="#8488B5"/>
<stop offset="0.488281" stop-color="#8387B5"/>
<stop offset="0.492188" stop-color="#8286B4"/>
<stop offset="0.496094" stop-color="#8185B3"/>
<stop offset="0.5" stop-color="#8084B3"/>
<stop offset="0.503906" stop-color="#7F83B2"/>
<stop offset="0.507812" stop-color="#7E82B1"/>
<stop offset="0.511719" stop-color="#7D82B1"/>
<stop offset="0.515625" stop-color="#7D81B0"/>
<stop offset="0.519531" stop-color="#7C80B0"/>
<stop offset="0.523438" stop-color="#7B7FAF"/>
<stop offset="0.527344" stop-color="#7A7EAE"/>
<stop offset="0.53125" stop-color="#797DAE"/>
<stop offset="0.535156" stop-color="#787CAD"/>
<stop offset="0.539062" stop-color="#777BAC"/>
<stop offset="0.542969" stop-color="#767AAC"/>
<stop offset="0.546875" stop-color="#767AAB"/>
<stop offset="0.550781" stop-color="#7579AA"/>
<stop offset="0.554688" stop-color="#7478AA"/>
<stop offset="0.558594" stop-color="#7377A9"/>
<stop offset="0.5625" stop-color="#7276A8"/>
<stop offset="0.566406" stop-color="#7175A8"/>
<stop offset="0.570312" stop-color="#7074A7"/>
<stop offset="0.574219" stop-color="#6F73A6"/>
<stop offset="0.578125" stop-color="#6E73A6"/>
<stop offset="0.582031" stop-color="#6E72A5"/>
<stop offset="0.585938" stop-color="#6D71A4"/>
<stop offset="0.589844" stop-color="#6C70A4"/>
<stop offset="0.59375" stop-color="#6B6FA3"/>
<stop offset="0.597656" stop-color="#6A6EA2"/>
<stop offset="0.601562" stop-color="#696DA2"/>
<stop offset="0.605469" stop-color="#686CA1"/>
<stop offset="0.609375" stop-color="#676BA0"/>
<stop offset="0.613281" stop-color="#666BA0"/>
<stop offset="0.617188" stop-color="#666A9F"/>
<stop offset="0.621094" stop-color="#65699E"/>
<stop offset="0.625" stop-color="#64689E"/>
<stop offset="0.628906" stop-color="#63679D"/>
<stop offset="0.632812" stop-color="#62669C"/>
<stop offset="0.636719" stop-color="#61659C"/>
<stop offset="0.640625" stop-color="#60649B"/>
<stop offset="0.644531" stop-color="#5F639A"/>
<stop offset="0.648438" stop-color="#5E639A"/>
<stop offset="0.652344" stop-color="#5E6299"/>
<stop offset="0.65625" stop-color="#5D6198"/>
<stop offset="0.660156" stop-color="#5C6098"/>
<stop offset="0.664062" stop-color="#5B5F97"/>
<stop offset="0.667969" stop-color="#5A5E96"/>
<stop offset="0.671875" stop-color="#595D96"/>
<stop offset="0.675781" stop-color="#585C95"/>
<stop offset="0.679688" stop-color="#575B94"/>
<stop offset="0.683594" stop-color="#575B94"/>
<stop offset="0.6875" stop-color="#565A93"/>
<stop offset="0.691406" stop-color="#555992"/>
<stop offset="0.695312" stop-color="#545892"/>
<stop offset="0.699219" stop-color="#535791"/>
<stop offset="0.703125" stop-color="#525691"/>
<stop offset="0.707031" stop-color="#515590"/>
<stop offset="0.710938" stop-color="#50548F"/>
<stop offset="0.714844" stop-color="#4F548F"/>
<stop offset="0.71875" stop-color="#4F538E"/>
<stop offset="0.722656" stop-color="#4E528D"/>
<stop offset="0.726562" stop-color="#4D518D"/>
<stop offset="0.730469" stop-color="#4C508C"/>
<stop offset="0.734375" stop-color="#4B4F8B"/>
<stop offset="0.738281" stop-color="#4A4E8B"/>
<stop offset="0.742188" stop-color="#494D8A"/>
<stop offset="0.746094" stop-color="#484C89"/>
<stop offset="1" stop-color="#484C89"/>
</radialGradient>
</defs>
</svg>
