<svg width="45" height="45" viewBox="0 0 45 45" fill="none" xmlns="http://www.w3.org/2000/svg">
<path d="M44.513 25.4215L42.0401 17.8112L37.139 2.72814C36.8873 1.9526 35.789 1.9526 35.5373 2.72814L30.6365 17.8112H14.3634L9.46258 2.72814C9.21051 1.9526 8.11258 1.9526 7.86051 2.72814L2.96008 17.8116L0.48684 25.4215C0.37684 25.7599 0.376781 26.1243 0.486671 26.4627C0.59656 26.8011 0.810756 27.096 1.09856 27.3052L22.4999 42.8534L43.9009 27.3048C44.1886 27.0956 44.4027 26.8008 44.5126 26.4625C44.6225 26.1242 44.6225 25.7598 44.5127 25.4215" fill="#FC6D26"/>
<path d="M22.4998 42.8533L30.6364 17.8115H14.3633L22.4998 42.853V42.8533Z" fill="#E24329"/>
<path d="M22.4998 42.8533L14.3632 17.8115H2.95996L22.4998 42.853V42.8533Z" fill="#FC6D26"/>
<path d="M2.95998 17.811L0.486383 25.4213C0.376354 25.7596 0.376282 26.124 0.486176 26.4624C0.596071 26.8007 0.810286 27.0956 1.0981 27.3046L22.4998 42.8532L2.95998 17.8114V17.811Z" fill="#FCA326"/>
<path d="M2.95996 17.8112H14.3632L9.46246 2.72814C9.21039 1.9526 8.11246 1.9526 7.86039 2.72814L2.95996 17.8116V17.8112Z" fill="#E24329"/>
<path d="M22.5 42.8533L30.6366 17.8115H42.0402L22.5 42.853V42.8533Z" fill="#FC6D26"/>
<path d="M42.0398 17.811L44.5131 25.4213C44.6231 25.7596 44.6232 26.124 44.5133 26.4624C44.4034 26.8007 44.1892 27.0956 43.9014 27.3046L22.5 42.8532L42.0398 17.8114V17.811Z" fill="#FCA326"/>
<path d="M42.0397 17.8114H30.6367L35.5375 2.72863C35.7896 1.95309 36.8875 1.95309 37.1396 2.72863L42.0404 17.8117L42.0397 17.8114Z" fill="#E24329"/>
</svg>
