<svg width="45" height="45" viewBox="0 0 45 45" fill="none" xmlns="http://www.w3.org/2000/svg">
<path d="M19.4239 1.45881C19.3078 1.49749 18.6856 1.69788 18.0317 1.91233C14.5161 3.06194 12.027 4.39436 11.4082 5.44905C11.1727 5.85334 11.127 6.1803 11.2676 6.50725C11.4223 6.87639 11.7071 7.15413 12.4875 7.70608C12.8532 7.96272 13.4754 8.50061 13.8797 8.90491C15.8133 10.835 16.752 13.201 16.6465 15.8764C16.527 18.8858 15.1172 21.8951 12.4172 24.908C11.475 25.9592 10.5082 26.8346 8.65199 28.3217C7.10511 29.5592 6.26488 30.3608 5.69183 31.1377C3.93753 33.5283 4.40511 35.6588 7.08402 37.4377C9.44652 39.0092 13.609 40.317 18.5133 41.0272C20.1586 41.2662 22.0184 41.4174 22.4649 41.3506L22.7778 41.3049L23.27 40.419C25.759 35.9365 27.0176 31.7108 27.1688 27.3373C27.2356 25.3862 26.9895 23.0764 26.5711 21.7264C26.4938 21.4838 26.4375 21.2764 26.4481 21.2694C26.4551 21.2623 27.1512 21.0549 27.995 20.8018C32.4282 19.4799 36.7172 18.4393 40.261 17.824C40.95 17.7045 41.5407 17.5815 41.5723 17.5498C41.7621 17.3635 41.2102 16.5022 40.3137 15.5776C36.9985 12.1569 31.1414 9.55178 24.2684 8.44436C22.943 8.22991 22.7813 8.15256 22.2891 7.50217C21.5086 6.46858 20.7739 4.70022 19.7719 1.46584C19.7403 1.36741 19.7086 1.36741 19.4239 1.45881V1.45881ZM19.8809 2.67522C20.2676 3.72639 20.5032 4.55256 20.5032 4.84436V5.07288L20.1762 5.0342C18.4043 4.8303 15.5778 4.39084 14.9766 4.22913C14.8219 4.18694 14.734 4.12717 14.7621 4.08147C14.8078 4.00764 15.409 3.71936 17.195 2.90725C18.8614 2.15139 19.4942 1.87014 19.5434 1.86663C19.5645 1.86663 19.7157 2.22874 19.8809 2.67522V2.67522ZM16.1332 4.89358C18.2953 5.34709 19.8703 5.63186 20.2184 5.63186C20.5559 5.63186 20.5172 5.65999 18.9282 6.6303C17.7012 7.37561 17.5606 7.44592 17.2512 7.44592H16.9137L16.0067 6.52483C14.9063 5.41038 14.161 4.59475 14.161 4.50334C14.161 4.46467 14.1821 4.45413 14.2137 4.4717C14.2418 4.48577 15.1102 4.67913 16.1332 4.89358V4.89358ZM14.5371 5.91663C15.068 6.53538 15.4793 7.05569 15.4582 7.0803C15.4125 7.126 13.8973 6.74983 12.9692 6.46506C12.1606 6.21545 12.0621 6.13108 12.2766 5.85686C12.4172 5.67405 13.4614 4.80217 13.5387 4.79866C13.5598 4.79514 14.0063 5.29436 14.5371 5.91663V5.91663ZM21.4348 7.19983C21.6457 7.70256 21.8075 8.11038 21.8004 8.11741C21.7899 8.12444 18.9493 7.68499 18.6996 7.63577C18.6469 7.62522 19.1286 7.29827 19.7754 6.90452C20.4223 6.51077 20.9743 6.21194 21.0024 6.24358C21.0305 6.26819 21.2239 6.69709 21.4348 7.19983V7.19983ZM15.2403 8.15256C15.2965 8.20881 15.975 10.3885 15.9434 10.4166C15.9328 10.4272 15.6094 10.0545 15.2262 9.57991C14.8395 9.1053 14.2594 8.44085 13.9254 8.0928L13.3243 7.4635L14.2629 7.78694C14.7762 7.96624 15.2192 8.13147 15.2403 8.15256V8.15256ZM17.9543 8.44436C19.1321 8.61311 20.1094 8.76428 20.127 8.78186C20.1411 8.79944 19.4309 9.35139 18.545 10.0123C17.659 10.6698 16.9278 11.2006 16.9172 11.1901C16.9067 11.1795 16.8188 10.9053 16.7203 10.5783C16.6219 10.2514 16.3688 9.57288 16.1614 9.06311C15.9539 8.55335 15.7922 8.1385 15.7993 8.1385C15.8063 8.1385 16.7766 8.27913 17.9543 8.44436V8.44436ZM20.9145 9.38655C21.1746 9.99475 21.2766 10.5783 21.3188 11.742C21.3399 12.3678 21.3434 12.8776 21.3223 12.8776C21.3012 12.8776 20.9286 12.7475 20.4961 12.5928C19.6313 12.2799 17.9368 11.7209 17.7364 11.6823C17.6485 11.6647 18.0563 11.2744 19.1286 10.3498C19.9653 9.62913 20.6754 9.04202 20.7071 9.04202C20.7422 9.04553 20.8336 9.20022 20.9145 9.38655V9.38655ZM23.952 9.5342C25.2563 9.80139 26.3953 10.0405 26.4868 10.0615C26.6168 10.0932 26.3039 10.2901 24.9258 11.0459C23.9766 11.5662 22.9008 12.1569 22.5352 12.3643C22.166 12.5717 21.8637 12.7299 21.8567 12.7229C21.8496 12.7158 21.8883 12.5225 21.9411 12.2905C22.1379 11.4467 22.0149 10.392 21.6211 9.55178C21.5051 9.3092 21.4102 9.09475 21.4102 9.07717C21.4102 9.01741 21.6457 9.0596 23.952 9.5342V9.5342ZM27.5063 11.1268C27.4395 11.4221 27.2953 11.9248 27.1793 12.2518C26.9297 12.969 26.0192 14.8287 25.8961 14.878C25.8469 14.899 25.418 14.6987 24.9504 14.4385C24.4828 14.1783 23.8043 13.8338 23.4493 13.6756L22.8024 13.3873L25.1895 11.858C27.1688 10.5889 27.5801 10.3498 27.6012 10.4623C27.6153 10.5326 27.5731 10.8315 27.5063 11.1268ZM29.25 10.5819C31.725 11.292 34.3371 12.2518 34.186 12.3959C34.1543 12.424 33.8309 12.533 33.4688 12.635C31.602 13.1658 29.0039 14.0623 27.7875 14.5967C27.4114 14.7619 27.0844 14.885 27.0668 14.8674C27.0493 14.8498 27.1969 14.3014 27.3973 13.6545C27.7875 12.3783 28.241 10.6557 28.241 10.4342C28.241 10.3358 28.2762 10.3041 28.3641 10.3287C28.4274 10.3463 28.8246 10.4588 29.25 10.5819V10.5819ZM18.6082 13.1483C19.1743 13.3346 19.8317 13.5842 20.0743 13.7073C20.5137 13.9287 20.5172 13.9323 20.3907 14.0694C20.1657 14.319 17.7082 16.6076 17.6379 16.6323C17.6028 16.6463 17.5746 16.2983 17.5746 15.7955C17.5711 14.9237 17.4727 13.3522 17.3989 13.0006C17.3426 12.744 17.3883 12.7475 18.6082 13.1483ZM34.3231 13.6018C33.7817 14.4948 32.8922 15.7674 32.2489 16.569C31.5914 17.3916 30.2028 18.9385 30.1219 18.9385C30.0903 18.9385 29.8899 18.6889 29.6754 18.3795C28.8844 17.251 27.9668 16.2737 27.1618 15.7041C27.0844 15.6514 27.0387 15.5916 27.0563 15.574C27.0739 15.5565 28.3957 15.0713 29.9848 14.4948C33.2051 13.3276 34.6219 12.853 34.7098 12.9162C34.7168 12.9268 34.5446 13.2326 34.3231 13.6018ZM36.3375 13.4506C38.5594 15.001 40.0711 16.2561 40.6196 17.0049C40.7567 17.1948 40.8586 17.3565 40.8446 17.367C40.8305 17.3776 40.1168 17.4584 39.252 17.5428C35.8032 17.8838 33.3457 18.2283 32.045 18.5588C31.6969 18.6467 31.4051 18.7135 31.4016 18.71C31.3946 18.703 31.6231 18.4217 31.9149 18.0737C33.4196 16.2701 34.7766 14.3928 35.2828 13.419C35.4164 13.1623 35.5465 12.9514 35.5746 12.9514C35.5993 12.9479 35.9403 13.1729 36.3375 13.4506V13.4506ZM23.8817 15.3737C24.3071 15.6022 24.634 15.8131 24.6164 15.8483C24.5848 15.9115 20.8336 17.9647 20.802 17.9365C20.795 17.9295 20.9883 17.3143 21.2344 16.5619C21.4805 15.8096 21.7196 14.994 21.7653 14.7444L21.8496 14.2873L22.4825 14.6248C22.834 14.8112 23.4563 15.1451 23.8817 15.3737V15.3737ZM20.7422 15.4932C20.3801 16.7483 19.6453 18.3655 19.3114 18.6467C19.234 18.71 19.0828 18.6221 18.5871 18.2213C18.2391 17.9401 17.884 17.6623 17.7891 17.599C17.6977 17.5358 17.6309 17.469 17.645 17.4514C17.9016 17.1948 20.8899 14.7865 20.9039 14.8252C20.9145 14.8498 20.8407 15.1522 20.7422 15.4932V15.4932ZM27.5344 17.6764C28.1004 18.0526 29.352 19.174 29.2852 19.2444C29.2676 19.2619 27.995 19.6768 26.4621 20.1584C24.9293 20.6436 23.2207 21.192 22.6653 21.3783C22.1063 21.5647 21.6493 21.7123 21.6457 21.7053C21.6387 21.6983 22.0289 21.2553 22.5106 20.7174C23.7657 19.3182 25.0559 17.817 25.5129 17.2264L25.9067 16.7166L26.4235 16.9944C26.7012 17.149 27.2075 17.4584 27.5344 17.6764V17.6764ZM24.6305 16.8713C24.5953 16.917 24.2578 17.3459 23.8782 17.8276C23.4985 18.3057 22.5914 19.4729 21.8532 20.4186L20.5137 22.1412L20.468 21.8494C20.3836 21.2834 20.0813 20.183 19.909 19.8069L19.7368 19.4307L20.5875 19.0053C21.4664 18.5658 23.2981 17.5709 24.1559 17.0717C24.6973 16.7553 24.7325 16.7412 24.6305 16.8713V16.8713ZM17.5254 18.9526C17.8735 19.1319 18.2004 19.3639 18.2004 19.4377C18.2004 19.5502 15.9328 21.301 15.8731 21.2342C15.859 21.2201 16.0629 20.8158 16.3266 20.3342C16.5938 19.8526 16.861 19.3147 16.9243 19.1319C16.9875 18.949 17.086 18.8014 17.1352 18.8014C17.1914 18.8014 17.3672 18.8717 17.5254 18.9526V18.9526ZM19.459 21.1076C19.6172 21.4135 19.7789 22.2748 19.6946 22.3522C19.6594 22.3838 18.7243 22.8268 17.6098 23.3365C16.4953 23.8463 15.0504 24.5319 14.386 24.8623C13.725 25.1928 13.2223 25.4248 13.2715 25.3826C13.3207 25.3369 14.0485 24.7287 14.8922 24.0256C16.5235 22.6686 18.3832 21.0479 18.7243 20.6893L18.9282 20.4748L19.1286 20.6682C19.2411 20.7737 19.3887 20.9705 19.459 21.1076V21.1076ZM17.6274 21.0901C17.4657 21.2342 16.5938 21.9971 15.6938 22.7776C14.7938 23.5545 13.711 24.4967 13.2891 24.8658C12.4383 25.6076 12.4383 25.6076 13.5246 24.1908C14.3649 23.094 14.8043 22.6862 16.0102 21.8776C16.5973 21.4838 17.7645 20.8264 17.877 20.8264C17.9016 20.8229 17.7891 20.9459 17.6274 21.0901V21.0901ZM26.0754 21.8354C26.1211 22.0639 26.1739 22.7811 26.1985 23.4209L26.2407 24.5881L25.97 24.4615C25.0348 24.0291 22.4086 22.549 22.5071 22.5104C23.0801 22.2819 25.9172 21.3397 25.9489 21.3713C25.9735 21.3959 26.0297 21.6033 26.0754 21.8354V21.8354ZM23.8465 23.9237C24.9399 24.567 25.8434 25.1014 25.8575 25.1119C25.8715 25.1225 25.7274 25.242 25.5481 25.3756C25.2 25.6323 21.4911 27.5483 21.4418 27.499C21.4278 27.485 21.477 27.1651 21.5508 26.7959C21.702 26.0506 21.8391 23.8287 21.7723 23.1221C21.7512 22.8725 21.7582 22.6967 21.7934 22.7178C21.8321 22.7389 22.7532 23.2803 23.8465 23.9237V23.9237ZM20.8231 23.4526C20.9075 24.1451 20.8055 25.5373 20.6192 26.2615C20.3977 27.1123 20.2711 27.4674 20.1762 27.499C20.0461 27.5448 19.2375 26.8065 18.7418 26.1912C18.2426 25.5725 17.5887 24.4053 17.6871 24.3104C17.7469 24.2541 20.6368 23.0623 20.7246 23.0588C20.7528 23.0553 20.7985 23.2346 20.8231 23.4526V23.4526ZM17.2793 25.1928C17.5852 25.8256 18.2848 26.7397 19.0512 27.5131C19.5434 28.0088 19.6664 28.1705 19.5891 28.2198C19.2446 28.4518 17.7082 29.1725 16.7379 29.5522C15.5602 30.0162 14.0309 30.5436 13.9957 30.5014C13.9817 30.4873 14.3332 29.8475 14.7762 29.0811C15.736 27.4147 16.9489 25.0592 16.9489 24.8658C16.9489 24.6198 17.0508 24.7182 17.2793 25.1928V25.1928ZM15.4653 25.2315C15.4477 25.2807 15.3 25.6463 15.1418 26.0506C14.4598 27.7803 13.1344 30.1287 12.8391 30.1287C12.6106 30.1287 12.2731 28.7612 12.1782 27.4463L12.1289 26.7854L13.7496 25.9662C14.6426 25.5162 15.3985 25.1471 15.4371 25.1471C15.4688 25.1436 15.4828 25.1823 15.4653 25.2315V25.2315ZM26.2864 26.8311C26.2934 27.826 25.875 30.2342 25.6536 30.4768C25.5621 30.5787 24.5321 30.199 23.6075 29.7209C22.7778 29.292 21.4137 28.4448 21.4137 28.3604C21.4137 28.3358 21.6211 28.2303 21.8813 28.1213C22.3735 27.9139 24.6621 26.6905 25.6325 26.1174L26.1914 25.7869L26.2407 26.0401C26.2582 26.1772 26.2828 26.5393 26.2864 26.8311V26.8311ZM11.018 27.9807C11.1129 28.7682 11.3555 29.7315 11.6578 30.4979C11.7809 30.8108 11.8688 31.0815 11.8547 31.0955C11.7352 31.2045 6.86605 32.544 6.22269 32.6459L5.91683 32.6951L5.96253 32.4596C6.02933 32.1256 6.50043 31.1623 6.85199 30.642C7.28793 29.9951 8.36722 28.9123 9.08089 28.4096C9.61175 28.0334 10.8914 27.2881 10.9301 27.3303C10.9336 27.3338 10.9758 27.6256 11.018 27.9807ZM22.0641 29.6401C23.5688 30.3608 24.1383 30.6104 24.859 30.86L25.411 31.0498L25.0629 31.2256C23.0907 32.224 19.6032 33.6479 18.6996 33.8237C18.4993 33.8623 18.4711 33.8518 18.5098 33.7533C18.6645 33.349 20.7457 29.0494 20.7844 29.0494C20.809 29.0459 21.3891 29.3166 22.0641 29.6401V29.6401ZM19.4168 29.4783C19.3114 29.9846 18.7383 31.6264 18.4043 32.3717C18.116 33.0186 17.4481 34.2807 17.3286 34.4002C17.2758 34.453 16.0875 33.7815 15.525 33.3807C14.8922 32.9307 13.5071 31.5948 13.5457 31.4717C13.5598 31.426 14.4036 31.1026 15.4196 30.751C17.5606 30.0127 18.7594 29.5662 19.1075 29.3869C19.445 29.2112 19.4731 29.2217 19.4168 29.4783V29.4783ZM25.4039 31.7459C25.3828 31.8936 25.2633 32.5405 25.1332 33.1944C24.7254 35.244 24.2297 36.6432 23.9133 36.6432C23.4774 36.6432 20.4926 35.919 19.5293 35.578C18.8754 35.3459 18.3094 35.0823 18.1231 34.917C18.0071 34.8151 18.0668 34.7799 18.9246 34.4283C21.6844 33.3033 24.8661 31.869 25.2106 31.5948C25.411 31.4365 25.4426 31.4576 25.4039 31.7459V31.7459ZM11.4399 32.3717C11.127 32.9307 10.4836 33.8553 9.26019 35.5076L8.21605 36.9139L7.90316 36.6889C7.46371 36.376 6.76761 35.6166 6.47582 35.135C6.16293 34.6182 5.94847 33.9819 5.92386 33.4967L5.90277 33.1205L6.41957 33.0678C7.11918 32.9975 9.07386 32.5932 10.4696 32.2276C11.1024 32.0623 11.6297 31.9358 11.6438 31.9463C11.6543 31.9604 11.5629 32.1502 11.4399 32.3717ZM14.4739 33.8166C14.8219 34.0662 15.3 34.3826 15.5461 34.5268L15.9926 34.7869L15.7922 34.8713C15.6797 34.917 14.059 35.5076 12.1852 36.1862C8.98597 37.3428 8.77503 37.4096 8.68714 37.2901C8.63441 37.2198 8.59925 37.1459 8.60628 37.1213C8.61332 37.0967 9.47816 35.9823 10.5293 34.6358L12.4383 32.1924L13.1414 32.7795C13.5352 33.1065 14.1258 33.567 14.4739 33.8166V33.8166ZM15.2614 37.4905C14.5618 38.5346 13.9711 39.417 13.95 39.4451C13.8973 39.5155 12.7793 39.2518 11.9426 38.974C11.0637 38.6787 9.98089 38.1303 9.55902 37.7682L9.25316 37.5045L9.94222 37.3182C12.7653 36.5483 16.4989 35.5604 16.5164 35.5744C16.5305 35.578 15.961 36.4463 15.2614 37.4905ZM18.6223 35.9084C20.1164 36.4217 21.4805 36.7135 23.2489 36.9033L23.7375 36.9561L22.4192 37.4307C19.1286 38.619 16.4637 39.4522 15.1207 39.7123C14.7446 39.7862 14.4 39.8459 14.3614 39.8459C14.3227 39.8459 14.5934 39.4768 14.9625 39.0303C15.968 37.8033 17.0578 36.4076 17.3461 35.9787C17.4868 35.7713 17.6274 35.5955 17.659 35.5955C17.6907 35.599 18.1196 35.7362 18.6223 35.9084V35.9084ZM23.5266 38.6787C22.9606 40.1412 22.5457 41.0307 22.3981 41.0869C22.1168 41.1959 18.2321 40.6229 17.0473 40.303C16.2598 40.0885 15.7571 39.8811 15.9047 39.8283C15.961 39.8073 16.5235 39.6772 17.1598 39.533C19.2164 39.069 22.3524 38.1162 23.6496 37.5608C23.8184 37.4905 23.966 37.4377 23.9766 37.4483C23.9836 37.4588 23.7832 38.0108 23.5266 38.6787V38.6787Z" fill="black"/>
</svg>
