<svg width="26" height="38" viewBox="0 0 26 38" fill="none" xmlns="http://www.w3.org/2000/svg">
<g clip-path="url(#clip0_316_332)">
<path d="M12.5713 19C12.5713 17.3424 13.2298 15.7527 14.4019 14.5806C15.574 13.4085 17.1637 12.75 18.8213 12.75C20.4789 12.75 22.0686 13.4085 23.2407 14.5806C24.4128 15.7527 25.0713 17.3424 25.0713 19C25.0713 20.6576 24.4128 22.2473 23.2407 23.4194C22.0686 24.5915 20.4789 25.25 18.8213 25.25C17.1637 25.25 15.574 24.5915 14.4019 23.4194C13.2298 22.2473 12.5713 20.6576 12.5713 19Z" fill="#1ABCFE"/>
<path d="M0.0712891 31.5C0.0712891 29.8424 0.729769 28.2527 1.90187 27.0806C3.07397 25.9085 4.66369 25.25 6.32129 25.25H12.5713V31.5C12.5713 33.1576 11.9128 34.7473 10.7407 35.9194C9.5686 37.0915 7.97889 37.75 6.32129 37.75C4.66369 37.75 3.07397 37.0915 1.90187 35.9194C0.729769 34.7473 0.0712891 33.1576 0.0712891 31.5Z" fill="#0ACF83"/>
<path d="M12.5713 0.25V12.75H18.8213C20.4789 12.75 22.0686 12.0915 23.2407 10.9194C24.4128 9.74731 25.0713 8.1576 25.0713 6.5C25.0713 4.8424 24.4128 3.25268 23.2407 2.08058C22.0686 0.90848 20.4789 0.25 18.8213 0.25L12.5713 0.25Z" fill="#FF7262"/>
<path d="M0.0712891 6.5C0.0712891 8.1576 0.729769 9.74731 1.90187 10.9194C3.07397 12.0915 4.66369 12.75 6.32129 12.75H12.5713V0.25H6.32129C4.66369 0.25 3.07397 0.90848 1.90187 2.08058C0.729769 3.25268 0.0712891 4.8424 0.0712891 6.5Z" fill="#F24E1E"/>
<path d="M0.0712891 19C0.0712891 20.6576 0.729769 22.2473 1.90187 23.4194C3.07397 24.5915 4.66369 25.25 6.32129 25.25H12.5713V12.75H6.32129C4.66369 12.75 3.07397 13.4085 1.90187 14.5806C0.729769 15.7527 0.0712891 17.3424 0.0712891 19Z" fill="#A259FF"/>
</g>
<defs>
<clipPath id="clip0_316_332">
<rect width="25" height="37.5" fill="white" transform="translate(0.0712891 0.25)"/>
</clipPath>
</defs>
</svg>
