<svg width="45" height="45" viewBox="0 0 45 45" fill="none" xmlns="http://www.w3.org/2000/svg">
<path fill-rule="evenodd" clip-rule="evenodd" d="M19.5995 0.869971C20.3024 0.475635 21.1677 0.475635 21.8696 0.869971C25.3424 2.81868 35.7932 8.68438 39.267 10.6331C39.9699 11.0264 40.4025 11.7549 40.4025 12.5436C40.4025 16.4409 40.4025 28.1715 40.4025 32.0689C40.4025 32.8575 39.9699 33.586 39.267 33.9804C35.7941 35.9291 25.3435 41.7948 21.8696 43.7435C21.1668 44.1378 20.3014 44.1378 19.5995 43.7435C16.1267 41.7948 5.67603 35.9291 2.20212 33.9804C1.50028 33.586 1.06763 32.8585 1.06763 32.07C1.06763 28.1725 1.06763 16.442 1.06763 12.5445C1.06763 11.756 1.50028 11.0274 2.20317 10.6331C5.67497 8.68438 16.1277 2.81868 19.5995 0.869971Z" fill="#283593"/>
<path fill-rule="evenodd" clip-rule="evenodd" d="M1.38228 33.0733C1.107 32.7049 1.06763 32.3551 1.06763 31.8842C1.06763 28.0095 1.06763 16.3463 1.06763 12.4706C1.06763 11.6861 1.49923 10.9618 2.20001 10.5706C5.66044 8.63329 16.0759 2.80168 19.5364 0.863285C20.2372 0.471058 21.1864 0.479379 21.8872 0.871605C25.3477 2.80883 35.7279 8.59086 39.1884 10.5281C39.4679 10.6855 39.6811 10.8748 39.8716 11.1242L1.38228 33.0733Z" fill="#5C6BC0"/>
<path fill-rule="evenodd" clip-rule="evenodd" d="M20.7352 7.81836C28.7337 7.81836 35.227 14.3102 35.227 22.3068C35.227 30.3035 28.7337 36.7953 20.7352 36.7953C12.7368 36.7953 6.24341 30.3035 6.24341 22.3068C6.24341 14.3102 12.7368 7.81836 20.7352 7.81836ZM20.7352 15.0625C24.7338 15.0625 27.9811 18.308 27.9811 22.3068C27.9811 26.3047 24.7338 29.5511 20.7352 29.5511C16.7365 29.5511 13.4892 26.3047 13.4892 22.3068C13.4892 18.308 16.7354 15.0625 20.7352 15.0625Z" fill="white"/>
<path fill-rule="evenodd" clip-rule="evenodd" d="M39.8695 11.1338C40.4036 11.6337 40.3933 12.3871 40.3933 12.9801C40.3933 16.9075 40.3602 28.0782 40.4026 32.0056C40.4068 32.4154 40.2712 32.847 40.0683 33.172L20.3138 22.3055L39.8695 11.1338Z" fill="#3949AB"/>
<path fill-rule="evenodd" clip-rule="evenodd" d="M31.0864 18.167H32.1215V26.4461H31.0864V18.167ZM34.1919 18.167H35.227V26.4461H34.1919V18.167Z" fill="white"/>
<path fill-rule="evenodd" clip-rule="evenodd" d="M29.0162 23.341H37.2973V24.3759H29.0162V23.341ZM29.0162 20.2363H37.2973V21.2712H29.0162V20.2363Z" fill="white"/>
</svg>
