<svg width="45" height="45" viewBox="0 0 45 45" fill="none" xmlns="http://www.w3.org/2000/svg">
<path d="M21.5139 0H23.2552C27.7966 0.188086 32.2861 1.71914 35.9265 4.45641C39.375 7.01895 42.0694 10.5866 43.5649 14.6187C44.4231 16.8641 44.853 19.2523 45 21.6471V23.1275C44.8545 27.0977 43.7119 31.0447 41.5793 34.4064C39.1883 38.2366 35.6302 41.3427 31.48 43.135C28.763 44.3131 25.8413 44.9467 22.8804 45H22.1266C18.0011 44.9329 13.8966 43.7133 10.4207 41.4872C6.48457 38.9865 3.34934 35.2346 1.62176 30.8992C0.664805 28.5434 0.155039 26.0227 0 23.4886V21.7459C0.177188 16.6869 2.09285 11.688 5.41758 7.86059C8.145 4.6793 11.7773 2.27813 15.7806 1.03254C17.6386 0.446484 19.5736 0.144141 21.5139 0ZM8.85621 13.1917C8.84566 17.4642 8.85234 21.7364 8.85234 26.0075C9.35508 26.0114 9.85781 26.0114 10.3616 26.0114C10.3352 22.3436 10.3971 18.6768 10.3243 15.01C10.4931 15.3288 10.6471 15.6568 10.8394 15.9616C13.0201 19.3043 15.1541 22.6758 17.3352 26.0156C17.9462 26.0075 18.5572 26.0075 19.1682 26.017C19.1672 21.742 19.1658 17.467 19.1696 13.192C18.6716 13.1872 18.1736 13.1858 17.6755 13.1878C17.7019 16.8159 17.6277 20.4441 17.7195 24.0683C15.4318 20.4289 13.1136 16.8103 10.7954 13.1892C10.149 13.1852 9.5026 13.1861 8.85621 13.1917M22.5123 13.1878C22.467 17.4628 22.5109 21.7378 22.4958 26.0114C24.77 26.0061 27.0443 26.0198 29.3196 26.0044C29.3114 25.5412 29.3143 25.078 29.328 24.615C27.566 24.6094 25.8029 24.6175 24.0395 24.608C24.0135 23.1279 24.0381 21.6457 24.0254 20.1653C25.5705 20.1379 27.1157 20.1695 28.659 20.1488C28.6552 19.6998 28.6552 19.2509 28.6523 18.8016C27.11 18.8511 25.5681 18.7826 24.0244 18.8058C24.0286 17.3914 24.0314 15.9757 24.0314 14.5596C25.6834 14.5596 27.3354 14.5526 28.986 14.5638C28.9832 14.1064 28.986 13.6477 28.9916 13.1906C26.8312 13.185 24.6709 13.1878 22.5123 13.1878M30.4583 13.2068C30.4597 13.6519 30.4597 14.0955 30.4611 14.5392C31.6874 14.5252 32.9122 14.5775 34.1385 14.5515C34.1304 18.3705 34.1399 22.1868 34.1346 26.0033C34.6479 26.0184 35.1647 26.0156 35.678 25.9717C35.6358 23.8651 35.7195 21.7571 35.6231 19.6516C35.6467 18.7028 35.5985 17.7553 35.6643 16.8075C35.7015 16.0552 35.5669 15.3039 35.652 14.5515C36.888 14.568 38.1252 14.5568 39.3609 14.5568C39.3553 14.1076 39.3641 13.6583 39.3873 13.2096C36.4099 13.1727 33.4329 13.1766 30.4583 13.2068M4.76367 24.2909C4.06863 24.6108 4.02328 25.7052 4.71129 26.0582C5.31598 26.473 6.22477 25.9277 6.19734 25.2109C6.2441 24.5064 5.39227 23.9143 4.76367 24.2909ZM15.0398 29.6659C13.5362 30.8855 13.5541 33.6016 15.2156 34.6757C16.1536 35.2716 17.3609 35.1482 18.3523 34.7512C18.3565 34.5329 18.3618 34.3157 18.3698 34.0973C17.4308 34.5878 16.1163 34.688 15.32 33.8829C14.2777 32.7449 14.5125 30.6243 15.8871 29.8484C16.6644 29.4391 17.6122 29.5587 18.3783 29.9324C18.3758 29.7004 18.3769 29.4683 18.3783 29.2363C17.2895 28.8499 15.9448 28.8707 15.0398 29.6659M21.0892 30.6186C20.4247 30.696 19.768 31.0475 19.4604 31.6614C19.0199 32.5389 19.0705 33.724 19.7641 34.4598C20.4796 35.2673 21.8542 35.2754 22.6399 34.5642C23.4925 33.7528 23.5888 32.2903 22.9061 31.3425C22.5025 30.7698 21.7554 30.575 21.0892 30.619M27.3776 31.5759C26.794 32.5895 26.9093 34.1248 27.9394 34.8142C28.7068 35.2431 29.6736 35.1067 30.4263 34.7059C30.4249 34.489 30.4277 34.2717 30.4372 34.0562C29.8441 34.4324 29.0531 34.7087 28.3939 34.3294C27.9337 34.0755 27.7949 33.5359 27.7211 33.055C28.7318 33.0413 29.7411 33.0261 30.7533 33.0289C30.7269 32.3863 30.7118 31.66 30.2435 31.1629C29.4704 30.3086 27.9077 30.5803 27.3776 31.5759ZM24.4195 30.7547V34.9762C24.6487 34.9762 24.8808 34.9762 25.1132 34.9777C25.1212 34.206 25.0991 33.4329 25.1213 32.6595C25.1269 32.213 25.3065 31.7602 25.643 31.4592C25.9246 31.2465 26.305 31.3643 26.6277 31.3727C26.6235 31.1491 26.6207 30.9262 26.6196 30.7041C25.9893 30.5641 25.4468 30.9333 25.1283 31.4483C25.1212 31.2258 25.1142 31.0032 25.1104 30.7825C24.8797 30.774 24.6487 30.7645 24.4195 30.7547V30.7547Z" fill="#623697"/>
<path d="M20.6569 31.3675C21.2377 31.0845 22.0713 31.2233 22.3954 31.8245C22.7646 32.4879 22.7565 33.3654 22.3473 34.008C21.8129 34.8117 20.4042 34.6359 20.054 33.7472C19.6996 32.9534 19.8371 31.8192 20.6569 31.3671V31.3675ZM27.7873 32.4893C27.8035 31.9359 28.1895 31.3864 28.7457 31.2659C29.0888 31.2082 29.4829 31.2683 29.7206 31.5446C29.9568 31.7957 30.0064 32.1472 30.0651 32.4728C29.3057 32.477 28.5464 32.4619 27.787 32.4893H27.7873Z" fill="#623697"/>
</svg>
